<svg id="Capa_1" enable-background="new 0 0 509.237 509.237" height="512" viewBox="0 0 509.237 509.237" width="512" xmlns="http://www.w3.org/2000/svg"><g><path d="m193.324 299.904-37.372-4.286-28.654 25.997c-.847 4.939-29.195 170.22-30.042 175.159 4.435-2.332 152.927-80.398 157.362-82.73l11.667-34.841-11.667-34.842c-.102-.074-61.188-44.379-61.294-44.457z" fill="#ffd500"/><path d="m175.937 171.888-.02.003-.021.003 6.723 36.392 34.083 19.515.021-.003.021-.003 27.875-29.843 10-46.901 18-66.932-18-71.656c-2.218 4.493-76.464 154.932-78.682 159.425z" fill="#ffd500"/><g fill="#ffaa0e"><path d="m292.494 227.794.021.003.021.003 33.083-19.682 7.723-36.225-.021-.003-.021-.003c-2.217-4.493-76.464-154.933-78.682-159.426v138.588-.001l12.667 50.569z"/><path d="m216.702 227.8c-11.048-15.137-34.282-46.969-40.806-55.906-4.959.72-170.937 24.839-175.896 25.559 3.588 3.497 123.722 120.597 127.31 124.095l-.006.034-.006.033c17.728-5.829 55.279-18.178 66.025-21.711 3.085-9.512 23.338-71.979 23.379-72.104z"/><path d="m315.915 299.904c-.102.074-61.19 44.38-61.296 44.457v69.683c4.435 2.332 152.928 80.398 157.363 82.73-.847-4.939-29.195-170.22-30.042-175.158l-28.988-24.665z"/></g><path d="m333.342 171.894c-11.048 15.137-34.282 46.969-40.806 55.906.039.12 20.294 62.592 23.378 72.105 17.727 5.829 55.28 18.178 66.025 21.712l-.006-.034-.006-.034c3.589-3.498 123.72-120.598 127.309-124.095-4.958-.721-170.935-24.84-175.894-25.56z" fill="#ff801d"/><path d="m216.744 227.794c-10.286 1.494-74.372 10.807-84.693 12.306 7.443 7.255 53.816 52.457 61.285 59.737-1.758 10.248-12.704 74.07-14.467 84.352 9.2-4.838 66.519-34.974 75.751-39.827l18-61.243-18-132.068c-4.601 9.319-33.261 67.391-37.876 76.743z" fill="#ff801d"/><path d="m330.37 384.187c-1.757-10.244-12.704-74.071-14.467-84.35 7.443-7.256 53.815-52.457 61.283-59.737-10.286-1.494-74.371-10.806-84.692-12.306-4.6-9.32-33.259-67.393-37.875-76.745v.001 193.312c9.2 4.836 66.52 34.971 75.751 39.825z" fill="#ff5a24"/><path d="m236.665 255.214c-14.05 2.041-26.095 3.791-40.145 5.834 10.167 9.909 18.883 18.404 29.049 28.314-2.4 13.994-4.458 25.99-6.858 39.983 12.567-6.606 23.34-12.27 35.907-18.876l18-27.352-18-64.281c-6.283 12.733-11.669 23.647-17.953 36.378z" fill="#ffaa0e"/><path d="m290.526 329.347c-2.4-13.993-4.457-25.99-6.858-39.984 10.167-9.91 18.882-18.405 29.049-28.314-14.05-2.043-26.095-3.793-40.145-5.834-6.284-12.732-11.67-23.646-17.954-36.377v91.633-.001c12.568 6.606 23.341 12.27 35.908 18.877z" fill="#ff801d"/></g></svg>